<mxfile host="app.diagrams.net" modified="2024-05-23T12:57:56.181Z" agent="Mozilla/5.0 (Macintosh; Intel Mac OS X 10_15_7) AppleWebKit/537.36 (KHTML, like Gecko) Chrome/124.0.0.0 Safari/537.36" etag="Nmx3jbd1ZMCFfmATswWW" version="24.3.0" type="github">
  <diagram id="C5RBs43oDa-KdzZeNtuy" name="Page-1">
    <mxGraphModel dx="5216" dy="2219" grid="1" gridSize="10" guides="1" tooltips="1" connect="1" arrows="1" fold="1" page="1" pageScale="1" pageWidth="827" pageHeight="1169" math="0" shadow="0">
      <root>
        <mxCell id="WIyWlLk6GJQsqaUBKTNV-0" />
        <mxCell id="WIyWlLk6GJQsqaUBKTNV-1" parent="WIyWlLk6GJQsqaUBKTNV-0" />
        <mxCell id="ylc-xCv-kNQs_xHYFbVs-104" value="User" style="swimlane;fontStyle=2;align=center;verticalAlign=top;childLayout=stackLayout;horizontal=1;startSize=26;horizontalStack=0;resizeParent=1;resizeLast=0;collapsible=1;marginBottom=0;rounded=0;shadow=0;strokeWidth=1;" parent="WIyWlLk6GJQsqaUBKTNV-1" vertex="1">
          <mxGeometry x="-2979" y="-812" width="160" height="725" as="geometry">
            <mxRectangle x="230" y="140" width="160" height="26" as="alternateBounds" />
          </mxGeometry>
        </mxCell>
        <mxCell id="ylc-xCv-kNQs_xHYFbVs-296" value="-id : int" style="label;fontStyle=0;strokeColor=none;fillColor=none;align=left;verticalAlign=top;overflow=hidden;spacingLeft=28;spacingRight=4;rotatable=0;points=[[0,0.5],[1,0.5]];portConstraint=eastwest;imageWidth=16;imageHeight=16;whiteSpace=wrap;html=1;image=img/clipart/Gear_128x128.png" parent="ylc-xCv-kNQs_xHYFbVs-104" vertex="1">
          <mxGeometry y="26" width="160" height="26" as="geometry" />
        </mxCell>
        <mxCell id="ylc-xCv-kNQs_xHYFbVs-106" value="-email : string" style="text;align=left;verticalAlign=top;spacingLeft=4;spacingRight=4;overflow=hidden;rotatable=0;points=[[0,0.5],[1,0.5]];portConstraint=eastwest;" parent="ylc-xCv-kNQs_xHYFbVs-104" vertex="1">
          <mxGeometry y="52" width="160" height="26" as="geometry" />
        </mxCell>
        <mxCell id="ylc-xCv-kNQs_xHYFbVs-107" value="-password : string" style="text;align=left;verticalAlign=top;spacingLeft=4;spacingRight=4;overflow=hidden;rotatable=0;points=[[0,0.5],[1,0.5]];portConstraint=eastwest;rounded=0;shadow=0;html=0;" parent="ylc-xCv-kNQs_xHYFbVs-104" vertex="1">
          <mxGeometry y="78" width="160" height="26" as="geometry" />
        </mxCell>
        <mxCell id="ylc-xCv-kNQs_xHYFbVs-108" value="-registerDate : datetime" style="text;align=left;verticalAlign=top;spacingLeft=4;spacingRight=4;overflow=hidden;rotatable=0;points=[[0,0.5],[1,0.5]];portConstraint=eastwest;rounded=0;shadow=0;html=0;" parent="ylc-xCv-kNQs_xHYFbVs-104" vertex="1">
          <mxGeometry y="104" width="160" height="26" as="geometry" />
        </mxCell>
        <mxCell id="ylc-xCv-kNQs_xHYFbVs-109" value="-name : string" style="text;align=left;verticalAlign=top;spacingLeft=4;spacingRight=4;overflow=hidden;rotatable=0;points=[[0,0.5],[1,0.5]];portConstraint=eastwest;rounded=0;shadow=0;html=0;" parent="ylc-xCv-kNQs_xHYFbVs-104" vertex="1">
          <mxGeometry y="130" width="160" height="26" as="geometry" />
        </mxCell>
        <mxCell id="ylc-xCv-kNQs_xHYFbVs-110" value="-lastname : string" style="text;align=left;verticalAlign=top;spacingLeft=4;spacingRight=4;overflow=hidden;rotatable=0;points=[[0,0.5],[1,0.5]];portConstraint=eastwest;rounded=0;shadow=0;html=0;" parent="ylc-xCv-kNQs_xHYFbVs-104" vertex="1">
          <mxGeometry y="156" width="160" height="26" as="geometry" />
        </mxCell>
        <mxCell id="ylc-xCv-kNQs_xHYFbVs-111" value="-role : string" style="text;align=left;verticalAlign=top;spacingLeft=4;spacingRight=4;overflow=hidden;rotatable=0;points=[[0,0.5],[1,0.5]];portConstraint=eastwest;rounded=0;shadow=0;html=0;" parent="ylc-xCv-kNQs_xHYFbVs-104" vertex="1">
          <mxGeometry y="182" width="160" height="26" as="geometry" />
        </mxCell>
        <mxCell id="ylc-xCv-kNQs_xHYFbVs-112" value="" style="line;html=1;strokeWidth=1;align=left;verticalAlign=middle;spacingTop=-1;spacingLeft=3;spacingRight=3;rotatable=0;labelPosition=right;points=[];portConstraint=eastwest;" parent="ylc-xCv-kNQs_xHYFbVs-104" vertex="1">
          <mxGeometry y="208" width="160" height="8" as="geometry" />
        </mxCell>
        <mxCell id="ylc-xCv-kNQs_xHYFbVs-113" value="+ login()" style="text;align=left;verticalAlign=top;spacingLeft=4;spacingRight=4;overflow=hidden;rotatable=0;points=[[0,0.5],[1,0.5]];portConstraint=eastwest;" parent="ylc-xCv-kNQs_xHYFbVs-104" vertex="1">
          <mxGeometry y="216" width="160" height="28" as="geometry" />
        </mxCell>
        <mxCell id="ylc-xCv-kNQs_xHYFbVs-230" value="+ logout()" style="text;align=left;verticalAlign=top;spacingLeft=4;spacingRight=4;overflow=hidden;rotatable=0;points=[[0,0.5],[1,0.5]];portConstraint=eastwest;" parent="ylc-xCv-kNQs_xHYFbVs-104" vertex="1">
          <mxGeometry y="244" width="160" height="28" as="geometry" />
        </mxCell>
        <mxCell id="6y3Bn1Rcq514JY3irPdN-0" value="&amp;nbsp;+ createEmployed()" style="text;html=1;align=left;verticalAlign=middle;resizable=0;points=[];autosize=1;strokeColor=none;fillColor=none;" vertex="1" parent="ylc-xCv-kNQs_xHYFbVs-104">
          <mxGeometry y="272" width="160" height="30" as="geometry" />
        </mxCell>
        <mxCell id="6y3Bn1Rcq514JY3irPdN-1" value="&amp;nbsp;+ modifyEmployed()" style="text;html=1;align=left;verticalAlign=middle;resizable=0;points=[];autosize=1;strokeColor=none;fillColor=none;" vertex="1" parent="ylc-xCv-kNQs_xHYFbVs-104">
          <mxGeometry y="302" width="160" height="30" as="geometry" />
        </mxCell>
        <mxCell id="6y3Bn1Rcq514JY3irPdN-2" value="&amp;nbsp;+ deleteEmployed()" style="text;html=1;align=left;verticalAlign=middle;resizable=0;points=[];autosize=1;strokeColor=none;fillColor=none;" vertex="1" parent="ylc-xCv-kNQs_xHYFbVs-104">
          <mxGeometry y="332" width="160" height="30" as="geometry" />
        </mxCell>
        <mxCell id="6y3Bn1Rcq514JY3irPdN-5" value="&amp;nbsp;+ createService()" style="text;html=1;align=left;verticalAlign=middle;resizable=0;points=[];autosize=1;strokeColor=none;fillColor=none;" vertex="1" parent="ylc-xCv-kNQs_xHYFbVs-104">
          <mxGeometry y="362" width="160" height="30" as="geometry" />
        </mxCell>
        <mxCell id="6y3Bn1Rcq514JY3irPdN-4" value="&amp;nbsp;+ modifyService()" style="text;html=1;align=left;verticalAlign=middle;resizable=0;points=[];autosize=1;strokeColor=none;fillColor=none;" vertex="1" parent="ylc-xCv-kNQs_xHYFbVs-104">
          <mxGeometry y="392" width="160" height="30" as="geometry" />
        </mxCell>
        <mxCell id="6y3Bn1Rcq514JY3irPdN-3" value="&amp;nbsp;+ deleteService()" style="text;html=1;align=left;verticalAlign=middle;resizable=0;points=[];autosize=1;strokeColor=none;fillColor=none;" vertex="1" parent="ylc-xCv-kNQs_xHYFbVs-104">
          <mxGeometry y="422" width="160" height="30" as="geometry" />
        </mxCell>
        <mxCell id="6y3Bn1Rcq514JY3irPdN-8" value="&amp;nbsp;+ modifyHoraire()" style="text;html=1;align=left;verticalAlign=middle;resizable=0;points=[];autosize=1;strokeColor=none;fillColor=none;" vertex="1" parent="ylc-xCv-kNQs_xHYFbVs-104">
          <mxGeometry y="452" width="160" height="30" as="geometry" />
        </mxCell>
        <mxCell id="6y3Bn1Rcq514JY3irPdN-7" value="&amp;nbsp;+ createAvis()" style="text;html=1;align=left;verticalAlign=middle;resizable=0;points=[];autosize=1;strokeColor=none;fillColor=none;" vertex="1" parent="ylc-xCv-kNQs_xHYFbVs-104">
          <mxGeometry y="482" width="160" height="30" as="geometry" />
        </mxCell>
        <mxCell id="6y3Bn1Rcq514JY3irPdN-6" value="&amp;nbsp;+ validateAvis()" style="text;html=1;align=left;verticalAlign=middle;resizable=0;points=[];autosize=1;strokeColor=none;fillColor=none;" vertex="1" parent="ylc-xCv-kNQs_xHYFbVs-104">
          <mxGeometry y="512" width="160" height="30" as="geometry" />
        </mxCell>
        <mxCell id="6y3Bn1Rcq514JY3irPdN-9" value="&amp;nbsp;+ deleteAvis()" style="text;html=1;align=left;verticalAlign=middle;resizable=0;points=[];autosize=1;strokeColor=none;fillColor=none;" vertex="1" parent="ylc-xCv-kNQs_xHYFbVs-104">
          <mxGeometry y="542" width="160" height="30" as="geometry" />
        </mxCell>
        <mxCell id="6y3Bn1Rcq514JY3irPdN-10" value="&amp;nbsp;+ createMessage()" style="text;html=1;align=left;verticalAlign=middle;resizable=0;points=[];autosize=1;strokeColor=none;fillColor=none;" vertex="1" parent="ylc-xCv-kNQs_xHYFbVs-104">
          <mxGeometry y="572" width="160" height="30" as="geometry" />
        </mxCell>
        <mxCell id="6y3Bn1Rcq514JY3irPdN-11" value="&amp;nbsp;+ deleteMessage()" style="text;html=1;align=left;verticalAlign=middle;resizable=0;points=[];autosize=1;strokeColor=none;fillColor=none;" vertex="1" parent="ylc-xCv-kNQs_xHYFbVs-104">
          <mxGeometry y="602" width="160" height="30" as="geometry" />
        </mxCell>
        <mxCell id="6y3Bn1Rcq514JY3irPdN-12" value="&amp;nbsp;+ createOccasion()" style="text;html=1;align=left;verticalAlign=middle;resizable=0;points=[];autosize=1;strokeColor=none;fillColor=none;" vertex="1" parent="ylc-xCv-kNQs_xHYFbVs-104">
          <mxGeometry y="632" width="160" height="30" as="geometry" />
        </mxCell>
        <mxCell id="6y3Bn1Rcq514JY3irPdN-13" value="&amp;nbsp;+ modifyOccasion()" style="text;html=1;align=left;verticalAlign=middle;resizable=0;points=[];autosize=1;strokeColor=none;fillColor=none;" vertex="1" parent="ylc-xCv-kNQs_xHYFbVs-104">
          <mxGeometry y="662" width="160" height="30" as="geometry" />
        </mxCell>
        <mxCell id="6y3Bn1Rcq514JY3irPdN-14" value="&amp;nbsp;+ deleteOccasion()" style="text;html=1;align=left;verticalAlign=middle;resizable=0;points=[];autosize=1;strokeColor=none;fillColor=none;" vertex="1" parent="ylc-xCv-kNQs_xHYFbVs-104">
          <mxGeometry y="692" width="160" height="30" as="geometry" />
        </mxCell>
        <mxCell id="ylc-xCv-kNQs_xHYFbVs-146" value="Avis" style="swimlane;fontStyle=0;align=center;verticalAlign=top;childLayout=stackLayout;horizontal=1;startSize=26;horizontalStack=0;resizeParent=1;resizeLast=0;collapsible=1;marginBottom=0;rounded=0;shadow=0;strokeWidth=1;" parent="WIyWlLk6GJQsqaUBKTNV-1" vertex="1">
          <mxGeometry x="-2705" y="-381" width="122" height="294" as="geometry">
            <mxRectangle x="550" y="140" width="160" height="26" as="alternateBounds" />
          </mxGeometry>
        </mxCell>
        <mxCell id="ylc-xCv-kNQs_xHYFbVs-293" value="-id : int" style="label;fontStyle=0;strokeColor=none;fillColor=none;align=left;verticalAlign=top;overflow=hidden;spacingLeft=28;spacingRight=4;rotatable=0;points=[[0,0.5],[1,0.5]];portConstraint=eastwest;imageWidth=16;imageHeight=16;whiteSpace=wrap;html=1;image=img/clipart/Gear_128x128.png" parent="ylc-xCv-kNQs_xHYFbVs-146" vertex="1">
          <mxGeometry y="26" width="122" height="26" as="geometry" />
        </mxCell>
        <mxCell id="ylc-xCv-kNQs_xHYFbVs-148" value="-name : string" style="text;align=left;verticalAlign=top;spacingLeft=4;spacingRight=4;overflow=hidden;rotatable=0;points=[[0,0.5],[1,0.5]];portConstraint=eastwest;rounded=0;shadow=0;html=0;" parent="ylc-xCv-kNQs_xHYFbVs-146" vertex="1">
          <mxGeometry y="52" width="122" height="26" as="geometry" />
        </mxCell>
        <mxCell id="ylc-xCv-kNQs_xHYFbVs-149" value="-lastname : string" style="text;align=left;verticalAlign=top;spacingLeft=4;spacingRight=4;overflow=hidden;rotatable=0;points=[[0,0.5],[1,0.5]];portConstraint=eastwest;rounded=0;shadow=0;html=0;" parent="ylc-xCv-kNQs_xHYFbVs-146" vertex="1">
          <mxGeometry y="78" width="122" height="26" as="geometry" />
        </mxCell>
        <mxCell id="ylc-xCv-kNQs_xHYFbVs-150" value="-email : string" style="text;align=left;verticalAlign=top;spacingLeft=4;spacingRight=4;overflow=hidden;rotatable=0;points=[[0,0.5],[1,0.5]];portConstraint=eastwest;rounded=0;shadow=0;html=0;" parent="ylc-xCv-kNQs_xHYFbVs-146" vertex="1">
          <mxGeometry y="104" width="122" height="26" as="geometry" />
        </mxCell>
        <mxCell id="ylc-xCv-kNQs_xHYFbVs-151" value="-avis : text" style="text;align=left;verticalAlign=top;spacingLeft=4;spacingRight=4;overflow=hidden;rotatable=0;points=[[0,0.5],[1,0.5]];portConstraint=eastwest;rounded=0;shadow=0;html=0;" parent="ylc-xCv-kNQs_xHYFbVs-146" vertex="1">
          <mxGeometry y="130" width="122" height="26" as="geometry" />
        </mxCell>
        <mxCell id="ylc-xCv-kNQs_xHYFbVs-152" value="-status : string" style="text;align=left;verticalAlign=top;spacingLeft=4;spacingRight=4;overflow=hidden;rotatable=0;points=[[0,0.5],[1,0.5]];portConstraint=eastwest;rounded=0;shadow=0;html=0;" parent="ylc-xCv-kNQs_xHYFbVs-146" vertex="1">
          <mxGeometry y="156" width="122" height="26" as="geometry" />
        </mxCell>
        <mxCell id="ylc-xCv-kNQs_xHYFbVs-153" value="-note : int" style="text;align=left;verticalAlign=top;spacingLeft=4;spacingRight=4;overflow=hidden;rotatable=0;points=[[0,0.5],[1,0.5]];portConstraint=eastwest;rounded=0;shadow=0;html=0;" parent="ylc-xCv-kNQs_xHYFbVs-146" vertex="1">
          <mxGeometry y="182" width="122" height="26" as="geometry" />
        </mxCell>
        <mxCell id="ylc-xCv-kNQs_xHYFbVs-154" value="" style="line;html=1;strokeWidth=1;align=left;verticalAlign=middle;spacingTop=-1;spacingLeft=3;spacingRight=3;rotatable=0;labelPosition=right;points=[];portConstraint=eastwest;" parent="ylc-xCv-kNQs_xHYFbVs-146" vertex="1">
          <mxGeometry y="208" width="122" height="8" as="geometry" />
        </mxCell>
        <mxCell id="ylc-xCv-kNQs_xHYFbVs-155" value="+ create()" style="text;align=left;verticalAlign=top;spacingLeft=4;spacingRight=4;overflow=hidden;rotatable=0;points=[[0,0.5],[1,0.5]];portConstraint=eastwest;" parent="ylc-xCv-kNQs_xHYFbVs-146" vertex="1">
          <mxGeometry y="216" width="122" height="26" as="geometry" />
        </mxCell>
        <mxCell id="ylc-xCv-kNQs_xHYFbVs-156" value="+ validate()" style="text;align=left;verticalAlign=top;spacingLeft=4;spacingRight=4;overflow=hidden;rotatable=0;points=[[0,0.5],[1,0.5]];portConstraint=eastwest;" parent="ylc-xCv-kNQs_xHYFbVs-146" vertex="1">
          <mxGeometry y="242" width="122" height="26" as="geometry" />
        </mxCell>
        <mxCell id="ylc-xCv-kNQs_xHYFbVs-157" value="+ delete()" style="text;align=left;verticalAlign=top;spacingLeft=4;spacingRight=4;overflow=hidden;rotatable=0;points=[[0,0.5],[1,0.5]];portConstraint=eastwest;" parent="ylc-xCv-kNQs_xHYFbVs-146" vertex="1">
          <mxGeometry y="268" width="122" height="26" as="geometry" />
        </mxCell>
        <mxCell id="ylc-xCv-kNQs_xHYFbVs-158" value="Horaires" style="swimlane;fontStyle=0;align=center;verticalAlign=top;childLayout=stackLayout;horizontal=1;startSize=26;horizontalStack=0;resizeParent=1;resizeLast=0;collapsible=1;marginBottom=0;rounded=0;shadow=0;strokeWidth=1;" parent="WIyWlLk6GJQsqaUBKTNV-1" vertex="1">
          <mxGeometry x="-2705" y="-1110" width="120" height="192.25" as="geometry">
            <mxRectangle x="550" y="140" width="160" height="26" as="alternateBounds" />
          </mxGeometry>
        </mxCell>
        <mxCell id="ylc-xCv-kNQs_xHYFbVs-297" value="-id : int" style="label;fontStyle=0;strokeColor=none;fillColor=none;align=left;verticalAlign=top;overflow=hidden;spacingLeft=28;spacingRight=4;rotatable=0;points=[[0,0.5],[1,0.5]];portConstraint=eastwest;imageWidth=16;imageHeight=16;whiteSpace=wrap;html=1;image=img/clipart/Gear_128x128.png" parent="ylc-xCv-kNQs_xHYFbVs-158" vertex="1">
          <mxGeometry y="26" width="120" height="26" as="geometry" />
        </mxCell>
        <mxCell id="ylc-xCv-kNQs_xHYFbVs-160" value="-jour : string" style="text;align=left;verticalAlign=top;spacingLeft=4;spacingRight=4;overflow=hidden;rotatable=0;points=[[0,0.5],[1,0.5]];portConstraint=eastwest;rounded=0;shadow=0;html=0;" parent="ylc-xCv-kNQs_xHYFbVs-158" vertex="1">
          <mxGeometry y="52" width="120" height="26" as="geometry" />
        </mxCell>
        <mxCell id="ylc-xCv-kNQs_xHYFbVs-161" value="-ouverture : time" style="text;align=left;verticalAlign=top;spacingLeft=4;spacingRight=4;overflow=hidden;rotatable=0;points=[[0,0.5],[1,0.5]];portConstraint=eastwest;rounded=0;shadow=0;html=0;" parent="ylc-xCv-kNQs_xHYFbVs-158" vertex="1">
          <mxGeometry y="78" width="120" height="26" as="geometry" />
        </mxCell>
        <mxCell id="ylc-xCv-kNQs_xHYFbVs-162" value="-fermeture : time" style="text;align=left;verticalAlign=top;spacingLeft=4;spacingRight=4;overflow=hidden;rotatable=0;points=[[0,0.5],[1,0.5]];portConstraint=eastwest;rounded=0;shadow=0;html=0;" parent="ylc-xCv-kNQs_xHYFbVs-158" vertex="1">
          <mxGeometry y="104" width="120" height="26" as="geometry" />
        </mxCell>
        <mxCell id="ylc-xCv-kNQs_xHYFbVs-163" value="" style="line;html=1;strokeWidth=1;align=left;verticalAlign=middle;spacingTop=-1;spacingLeft=3;spacingRight=3;rotatable=0;labelPosition=right;points=[];portConstraint=eastwest;" parent="ylc-xCv-kNQs_xHYFbVs-158" vertex="1">
          <mxGeometry y="130" width="120" height="8" as="geometry" />
        </mxCell>
        <mxCell id="ylc-xCv-kNQs_xHYFbVs-164" value="+ create()" style="text;align=left;verticalAlign=top;spacingLeft=4;spacingRight=4;overflow=hidden;rotatable=0;points=[[0,0.5],[1,0.5]];portConstraint=eastwest;" parent="ylc-xCv-kNQs_xHYFbVs-158" vertex="1">
          <mxGeometry y="138" width="120" height="26" as="geometry" />
        </mxCell>
        <mxCell id="ylc-xCv-kNQs_xHYFbVs-165" value="+ update()" style="text;align=left;verticalAlign=top;spacingLeft=4;spacingRight=4;overflow=hidden;rotatable=0;points=[[0,0.5],[1,0.5]];portConstraint=eastwest;" parent="ylc-xCv-kNQs_xHYFbVs-158" vertex="1">
          <mxGeometry y="164" width="120" height="26" as="geometry" />
        </mxCell>
        <mxCell id="ylc-xCv-kNQs_xHYFbVs-166" value="Messages" style="swimlane;fontStyle=0;align=center;verticalAlign=top;childLayout=stackLayout;horizontal=1;startSize=26;horizontalStack=0;resizeParent=1;resizeLast=0;collapsible=1;marginBottom=0;rounded=0;shadow=0;strokeWidth=1;" parent="WIyWlLk6GJQsqaUBKTNV-1" vertex="1">
          <mxGeometry x="-2705" y="-812" width="142" height="350" as="geometry">
            <mxRectangle x="550" y="140" width="160" height="26" as="alternateBounds" />
          </mxGeometry>
        </mxCell>
        <mxCell id="ylc-xCv-kNQs_xHYFbVs-294" value="-id : int" style="label;fontStyle=0;strokeColor=none;fillColor=none;align=left;verticalAlign=top;overflow=hidden;spacingLeft=28;spacingRight=4;rotatable=0;points=[[0,0.5],[1,0.5]];portConstraint=eastwest;imageWidth=16;imageHeight=16;whiteSpace=wrap;html=1;image=img/clipart/Gear_128x128.png" parent="ylc-xCv-kNQs_xHYFbVs-166" vertex="1">
          <mxGeometry y="26" width="142" height="26" as="geometry" />
        </mxCell>
        <mxCell id="ylc-xCv-kNQs_xHYFbVs-168" value="-name : string" style="text;align=left;verticalAlign=top;spacingLeft=4;spacingRight=4;overflow=hidden;rotatable=0;points=[[0,0.5],[1,0.5]];portConstraint=eastwest;rounded=0;shadow=0;html=0;" parent="ylc-xCv-kNQs_xHYFbVs-166" vertex="1">
          <mxGeometry y="52" width="142" height="26" as="geometry" />
        </mxCell>
        <mxCell id="ylc-xCv-kNQs_xHYFbVs-169" value="-lastname : string" style="text;align=left;verticalAlign=top;spacingLeft=4;spacingRight=4;overflow=hidden;rotatable=0;points=[[0,0.5],[1,0.5]];portConstraint=eastwest;rounded=0;shadow=0;html=0;" parent="ylc-xCv-kNQs_xHYFbVs-166" vertex="1">
          <mxGeometry y="78" width="142" height="26" as="geometry" />
        </mxCell>
        <mxCell id="ylc-xCv-kNQs_xHYFbVs-170" value="-email : string" style="text;align=left;verticalAlign=top;spacingLeft=4;spacingRight=4;overflow=hidden;rotatable=0;points=[[0,0.5],[1,0.5]];portConstraint=eastwest;rounded=0;shadow=0;html=0;" parent="ylc-xCv-kNQs_xHYFbVs-166" vertex="1">
          <mxGeometry y="104" width="142" height="26" as="geometry" />
        </mxCell>
        <mxCell id="ylc-xCv-kNQs_xHYFbVs-171" value="-telephone : int" style="text;align=left;verticalAlign=top;spacingLeft=4;spacingRight=4;overflow=hidden;rotatable=0;points=[[0,0.5],[1,0.5]];portConstraint=eastwest;rounded=0;shadow=0;html=0;" parent="ylc-xCv-kNQs_xHYFbVs-166" vertex="1">
          <mxGeometry y="130" width="142" height="26" as="geometry" />
        </mxCell>
        <mxCell id="ylc-xCv-kNQs_xHYFbVs-172" value="-service : string" style="text;align=left;verticalAlign=top;spacingLeft=4;spacingRight=4;overflow=hidden;rotatable=0;points=[[0,0.5],[1,0.5]];portConstraint=eastwest;rounded=0;shadow=0;html=0;" parent="ylc-xCv-kNQs_xHYFbVs-166" vertex="1">
          <mxGeometry y="156" width="142" height="26" as="geometry" />
        </mxCell>
        <mxCell id="ylc-xCv-kNQs_xHYFbVs-173" value="-sujet : string" style="text;align=left;verticalAlign=top;spacingLeft=4;spacingRight=4;overflow=hidden;rotatable=0;points=[[0,0.5],[1,0.5]];portConstraint=eastwest;rounded=0;shadow=0;html=0;" parent="ylc-xCv-kNQs_xHYFbVs-166" vertex="1">
          <mxGeometry y="182" width="142" height="26" as="geometry" />
        </mxCell>
        <mxCell id="ylc-xCv-kNQs_xHYFbVs-174" value="-message : text" style="text;align=left;verticalAlign=top;spacingLeft=4;spacingRight=4;overflow=hidden;rotatable=0;points=[[0,0.5],[1,0.5]];portConstraint=eastwest;rounded=0;shadow=0;html=0;" parent="ylc-xCv-kNQs_xHYFbVs-166" vertex="1">
          <mxGeometry y="208" width="142" height="26" as="geometry" />
        </mxCell>
        <mxCell id="ylc-xCv-kNQs_xHYFbVs-175" value="-registerDate : datetime" style="text;align=left;verticalAlign=top;spacingLeft=4;spacingRight=4;overflow=hidden;rotatable=0;points=[[0,0.5],[1,0.5]];portConstraint=eastwest;rounded=0;shadow=0;html=0;" parent="ylc-xCv-kNQs_xHYFbVs-166" vertex="1">
          <mxGeometry y="234" width="142" height="26" as="geometry" />
        </mxCell>
        <mxCell id="ylc-xCv-kNQs_xHYFbVs-176" value="" style="line;html=1;strokeWidth=1;align=left;verticalAlign=middle;spacingTop=-1;spacingLeft=3;spacingRight=3;rotatable=0;labelPosition=right;points=[];portConstraint=eastwest;" parent="ylc-xCv-kNQs_xHYFbVs-166" vertex="1">
          <mxGeometry y="260" width="142" height="8" as="geometry" />
        </mxCell>
        <mxCell id="ylc-xCv-kNQs_xHYFbVs-177" value="+ create()" style="text;align=left;verticalAlign=top;spacingLeft=4;spacingRight=4;overflow=hidden;rotatable=0;points=[[0,0.5],[1,0.5]];portConstraint=eastwest;" parent="ylc-xCv-kNQs_xHYFbVs-166" vertex="1">
          <mxGeometry y="268" width="142" height="26" as="geometry" />
        </mxCell>
        <mxCell id="ylc-xCv-kNQs_xHYFbVs-178" value="+ validate()" style="text;align=left;verticalAlign=top;spacingLeft=4;spacingRight=4;overflow=hidden;rotatable=0;points=[[0,0.5],[1,0.5]];portConstraint=eastwest;" parent="ylc-xCv-kNQs_xHYFbVs-166" vertex="1">
          <mxGeometry y="294" width="142" height="26" as="geometry" />
        </mxCell>
        <mxCell id="ylc-xCv-kNQs_xHYFbVs-179" value="+ delete()" style="text;align=left;verticalAlign=top;spacingLeft=4;spacingRight=4;overflow=hidden;rotatable=0;points=[[0,0.5],[1,0.5]];portConstraint=eastwest;" parent="ylc-xCv-kNQs_xHYFbVs-166" vertex="1">
          <mxGeometry y="320" width="142" height="26" as="geometry" />
        </mxCell>
        <mxCell id="ylc-xCv-kNQs_xHYFbVs-194" value="Services" style="swimlane;fontStyle=0;align=center;verticalAlign=top;childLayout=stackLayout;horizontal=1;startSize=26;horizontalStack=0;resizeParent=1;resizeLast=0;collapsible=1;marginBottom=0;rounded=0;shadow=0;strokeWidth=1;" parent="WIyWlLk6GJQsqaUBKTNV-1" vertex="1">
          <mxGeometry x="-3220" y="-332" width="140" height="242.25" as="geometry">
            <mxRectangle x="550" y="140" width="160" height="26" as="alternateBounds" />
          </mxGeometry>
        </mxCell>
        <mxCell id="ylc-xCv-kNQs_xHYFbVs-298" value="-id : int" style="label;fontStyle=0;strokeColor=none;fillColor=none;align=left;verticalAlign=top;overflow=hidden;spacingLeft=28;spacingRight=4;rotatable=0;points=[[0,0.5],[1,0.5]];portConstraint=eastwest;imageWidth=16;imageHeight=16;whiteSpace=wrap;html=1;image=img/clipart/Gear_128x128.png" parent="ylc-xCv-kNQs_xHYFbVs-194" vertex="1">
          <mxGeometry y="26" width="140" height="26" as="geometry" />
        </mxCell>
        <mxCell id="ylc-xCv-kNQs_xHYFbVs-196" value="-name : string" style="text;align=left;verticalAlign=top;spacingLeft=4;spacingRight=4;overflow=hidden;rotatable=0;points=[[0,0.5],[1,0.5]];portConstraint=eastwest;rounded=0;shadow=0;html=0;" parent="ylc-xCv-kNQs_xHYFbVs-194" vertex="1">
          <mxGeometry y="52" width="140" height="26" as="geometry" />
        </mxCell>
        <mxCell id="ylc-xCv-kNQs_xHYFbVs-197" value="-photo : " style="text;align=left;verticalAlign=top;spacingLeft=4;spacingRight=4;overflow=hidden;rotatable=0;points=[[0,0.5],[1,0.5]];portConstraint=eastwest;rounded=0;shadow=0;html=0;" parent="ylc-xCv-kNQs_xHYFbVs-194" vertex="1">
          <mxGeometry y="78" width="140" height="26" as="geometry" />
        </mxCell>
        <mxCell id="ylc-xCv-kNQs_xHYFbVs-198" value="description" style="text;align=left;verticalAlign=top;spacingLeft=4;spacingRight=4;overflow=hidden;rotatable=0;points=[[0,0.5],[1,0.5]];portConstraint=eastwest;rounded=0;shadow=0;html=0;" parent="ylc-xCv-kNQs_xHYFbVs-194" vertex="1">
          <mxGeometry y="104" width="140" height="26" as="geometry" />
        </mxCell>
        <mxCell id="ylc-xCv-kNQs_xHYFbVs-199" value="price" style="text;align=left;verticalAlign=top;spacingLeft=4;spacingRight=4;overflow=hidden;rotatable=0;points=[[0,0.5],[1,0.5]];portConstraint=eastwest;rounded=0;shadow=0;html=0;" parent="ylc-xCv-kNQs_xHYFbVs-194" vertex="1">
          <mxGeometry y="130" width="140" height="26" as="geometry" />
        </mxCell>
        <mxCell id="ylc-xCv-kNQs_xHYFbVs-200" value="" style="line;html=1;strokeWidth=1;align=left;verticalAlign=middle;spacingTop=-1;spacingLeft=3;spacingRight=3;rotatable=0;labelPosition=right;points=[];portConstraint=eastwest;" parent="ylc-xCv-kNQs_xHYFbVs-194" vertex="1">
          <mxGeometry y="156" width="140" height="8" as="geometry" />
        </mxCell>
        <mxCell id="ylc-xCv-kNQs_xHYFbVs-201" value="+ create()" style="text;align=left;verticalAlign=top;spacingLeft=4;spacingRight=4;overflow=hidden;rotatable=0;points=[[0,0.5],[1,0.5]];portConstraint=eastwest;" parent="ylc-xCv-kNQs_xHYFbVs-194" vertex="1">
          <mxGeometry y="164" width="140" height="26" as="geometry" />
        </mxCell>
        <mxCell id="ylc-xCv-kNQs_xHYFbVs-202" value="+ update()" style="text;align=left;verticalAlign=top;spacingLeft=4;spacingRight=4;overflow=hidden;rotatable=0;points=[[0,0.5],[1,0.5]];portConstraint=eastwest;" parent="ylc-xCv-kNQs_xHYFbVs-194" vertex="1">
          <mxGeometry y="190" width="140" height="26" as="geometry" />
        </mxCell>
        <mxCell id="ylc-xCv-kNQs_xHYFbVs-203" value="+ delete()" style="text;align=left;verticalAlign=top;spacingLeft=4;spacingRight=4;overflow=hidden;rotatable=0;points=[[0,0.5],[1,0.5]];portConstraint=eastwest;" parent="ylc-xCv-kNQs_xHYFbVs-194" vertex="1">
          <mxGeometry y="216" width="140" height="26" as="geometry" />
        </mxCell>
        <mxCell id="ylc-xCv-kNQs_xHYFbVs-204" value="Occasions" style="swimlane;fontStyle=0;align=center;verticalAlign=top;childLayout=stackLayout;horizontal=1;startSize=26;horizontalStack=0;resizeParent=1;resizeLast=0;collapsible=1;marginBottom=0;rounded=0;shadow=0;strokeWidth=1;" parent="WIyWlLk6GJQsqaUBKTNV-1" vertex="1">
          <mxGeometry x="-3196" y="-849" width="122" height="320" as="geometry">
            <mxRectangle x="550" y="140" width="160" height="26" as="alternateBounds" />
          </mxGeometry>
        </mxCell>
        <mxCell id="ylc-xCv-kNQs_xHYFbVs-292" value="-id : int" style="label;fontStyle=0;strokeColor=none;fillColor=none;align=left;verticalAlign=top;overflow=hidden;spacingLeft=28;spacingRight=4;rotatable=0;points=[[0,0.5],[1,0.5]];portConstraint=eastwest;imageWidth=16;imageHeight=16;whiteSpace=wrap;html=1;image=img/clipart/Gear_128x128.png" parent="ylc-xCv-kNQs_xHYFbVs-204" vertex="1">
          <mxGeometry y="26" width="122" height="26" as="geometry" />
        </mxCell>
        <mxCell id="ylc-xCv-kNQs_xHYFbVs-206" value="-modele : string" style="text;align=left;verticalAlign=top;spacingLeft=4;spacingRight=4;overflow=hidden;rotatable=0;points=[[0,0.5],[1,0.5]];portConstraint=eastwest;rounded=0;shadow=0;html=0;" parent="ylc-xCv-kNQs_xHYFbVs-204" vertex="1">
          <mxGeometry y="52" width="122" height="26" as="geometry" />
        </mxCell>
        <mxCell id="ylc-xCv-kNQs_xHYFbVs-207" value="-annee : int" style="text;align=left;verticalAlign=top;spacingLeft=4;spacingRight=4;overflow=hidden;rotatable=0;points=[[0,0.5],[1,0.5]];portConstraint=eastwest;rounded=0;shadow=0;html=0;" parent="ylc-xCv-kNQs_xHYFbVs-204" vertex="1">
          <mxGeometry y="78" width="122" height="26" as="geometry" />
        </mxCell>
        <mxCell id="ylc-xCv-kNQs_xHYFbVs-208" value="-boite : string" style="text;align=left;verticalAlign=top;spacingLeft=4;spacingRight=4;overflow=hidden;rotatable=0;points=[[0,0.5],[1,0.5]];portConstraint=eastwest;rounded=0;shadow=0;html=0;" parent="ylc-xCv-kNQs_xHYFbVs-204" vertex="1">
          <mxGeometry y="104" width="122" height="26" as="geometry" />
        </mxCell>
        <mxCell id="ylc-xCv-kNQs_xHYFbVs-209" value="-description : text" style="text;align=left;verticalAlign=top;spacingLeft=4;spacingRight=4;overflow=hidden;rotatable=0;points=[[0,0.5],[1,0.5]];portConstraint=eastwest;rounded=0;shadow=0;html=0;" parent="ylc-xCv-kNQs_xHYFbVs-204" vertex="1">
          <mxGeometry y="130" width="122" height="26" as="geometry" />
        </mxCell>
        <mxCell id="ylc-xCv-kNQs_xHYFbVs-210" value="-carburant : string" style="text;align=left;verticalAlign=top;spacingLeft=4;spacingRight=4;overflow=hidden;rotatable=0;points=[[0,0.5],[1,0.5]];portConstraint=eastwest;rounded=0;shadow=0;html=0;" parent="ylc-xCv-kNQs_xHYFbVs-204" vertex="1">
          <mxGeometry y="156" width="122" height="26" as="geometry" />
        </mxCell>
        <mxCell id="ylc-xCv-kNQs_xHYFbVs-211" value="-kilometre  : int" style="text;align=left;verticalAlign=top;spacingLeft=4;spacingRight=4;overflow=hidden;rotatable=0;points=[[0,0.5],[1,0.5]];portConstraint=eastwest;rounded=0;shadow=0;html=0;" parent="ylc-xCv-kNQs_xHYFbVs-204" vertex="1">
          <mxGeometry y="182" width="122" height="26" as="geometry" />
        </mxCell>
        <mxCell id="ylc-xCv-kNQs_xHYFbVs-212" value="-prix : int" style="text;align=left;verticalAlign=top;spacingLeft=4;spacingRight=4;overflow=hidden;rotatable=0;points=[[0,0.5],[1,0.5]];portConstraint=eastwest;rounded=0;shadow=0;html=0;" parent="ylc-xCv-kNQs_xHYFbVs-204" vertex="1">
          <mxGeometry y="208" width="122" height="26" as="geometry" />
        </mxCell>
        <mxCell id="ylc-xCv-kNQs_xHYFbVs-213" value="" style="line;html=1;strokeWidth=1;align=left;verticalAlign=middle;spacingTop=-1;spacingLeft=3;spacingRight=3;rotatable=0;labelPosition=right;points=[];portConstraint=eastwest;" parent="ylc-xCv-kNQs_xHYFbVs-204" vertex="1">
          <mxGeometry y="234" width="122" height="8" as="geometry" />
        </mxCell>
        <mxCell id="ylc-xCv-kNQs_xHYFbVs-214" value="+ create()" style="text;align=left;verticalAlign=top;spacingLeft=4;spacingRight=4;overflow=hidden;rotatable=0;points=[[0,0.5],[1,0.5]];portConstraint=eastwest;" parent="ylc-xCv-kNQs_xHYFbVs-204" vertex="1">
          <mxGeometry y="242" width="122" height="26" as="geometry" />
        </mxCell>
        <mxCell id="ylc-xCv-kNQs_xHYFbVs-215" value="+ update()" style="text;align=left;verticalAlign=top;spacingLeft=4;spacingRight=4;overflow=hidden;rotatable=0;points=[[0,0.5],[1,0.5]];portConstraint=eastwest;" parent="ylc-xCv-kNQs_xHYFbVs-204" vertex="1">
          <mxGeometry y="268" width="122" height="26" as="geometry" />
        </mxCell>
        <mxCell id="ylc-xCv-kNQs_xHYFbVs-216" value="+ delete()" style="text;align=left;verticalAlign=top;spacingLeft=4;spacingRight=4;overflow=hidden;rotatable=0;points=[[0,0.5],[1,0.5]];portConstraint=eastwest;" parent="ylc-xCv-kNQs_xHYFbVs-204" vertex="1">
          <mxGeometry y="294" width="122" height="26" as="geometry" />
        </mxCell>
        <mxCell id="ylc-xCv-kNQs_xHYFbVs-217" value="Photo" style="swimlane;fontStyle=0;align=center;verticalAlign=top;childLayout=stackLayout;horizontal=1;startSize=26;horizontalStack=0;resizeParent=1;resizeLast=0;collapsible=1;marginBottom=0;rounded=0;shadow=0;strokeWidth=1;" parent="WIyWlLk6GJQsqaUBKTNV-1" vertex="1">
          <mxGeometry x="-3215" y="-1102" width="141" height="218.25" as="geometry">
            <mxRectangle x="550" y="140" width="160" height="26" as="alternateBounds" />
          </mxGeometry>
        </mxCell>
        <mxCell id="ylc-xCv-kNQs_xHYFbVs-291" value="-id : int" style="label;fontStyle=0;strokeColor=none;fillColor=none;align=left;verticalAlign=top;overflow=hidden;spacingLeft=28;spacingRight=4;rotatable=0;points=[[0,0.5],[1,0.5]];portConstraint=eastwest;imageWidth=16;imageHeight=16;whiteSpace=wrap;html=1;image=img/clipart/Gear_128x128.png" parent="ylc-xCv-kNQs_xHYFbVs-217" vertex="1">
          <mxGeometry y="26" width="141" height="26" as="geometry" />
        </mxCell>
        <mxCell id="ylc-xCv-kNQs_xHYFbVs-219" value="-name_photo : string" style="text;align=left;verticalAlign=top;spacingLeft=4;spacingRight=4;overflow=hidden;rotatable=0;points=[[0,0.5],[1,0.5]];portConstraint=eastwest;rounded=0;shadow=0;html=0;" parent="ylc-xCv-kNQs_xHYFbVs-217" vertex="1">
          <mxGeometry y="52" width="141" height="26" as="geometry" />
        </mxCell>
        <mxCell id="ylc-xCv-kNQs_xHYFbVs-295" value="&lt;span style=&quot;text-wrap: nowrap;&quot;&gt;-id_occasion : int&lt;/span&gt;" style="label;fontStyle=0;strokeColor=none;fillColor=none;align=left;verticalAlign=top;overflow=hidden;spacingLeft=28;spacingRight=4;rotatable=0;points=[[0,0.5],[1,0.5]];portConstraint=eastwest;imageWidth=16;imageHeight=16;whiteSpace=wrap;html=1;image=img/clipart/Gear_128x128.png" parent="ylc-xCv-kNQs_xHYFbVs-217" vertex="1">
          <mxGeometry y="78" width="141" height="26" as="geometry" />
        </mxCell>
        <mxCell id="ylc-xCv-kNQs_xHYFbVs-221" value="-photo : string" style="text;align=left;verticalAlign=top;spacingLeft=4;spacingRight=4;overflow=hidden;rotatable=0;points=[[0,0.5],[1,0.5]];portConstraint=eastwest;rounded=0;shadow=0;html=0;" parent="ylc-xCv-kNQs_xHYFbVs-217" vertex="1">
          <mxGeometry y="104" width="141" height="26" as="geometry" />
        </mxCell>
        <mxCell id="ylc-xCv-kNQs_xHYFbVs-225" value="" style="line;html=1;strokeWidth=1;align=left;verticalAlign=middle;spacingTop=-1;spacingLeft=3;spacingRight=3;rotatable=0;labelPosition=right;points=[];portConstraint=eastwest;" parent="ylc-xCv-kNQs_xHYFbVs-217" vertex="1">
          <mxGeometry y="130" width="141" height="8" as="geometry" />
        </mxCell>
        <mxCell id="ylc-xCv-kNQs_xHYFbVs-226" value="+ add()" style="text;align=left;verticalAlign=top;spacingLeft=4;spacingRight=4;overflow=hidden;rotatable=0;points=[[0,0.5],[1,0.5]];portConstraint=eastwest;" parent="ylc-xCv-kNQs_xHYFbVs-217" vertex="1">
          <mxGeometry y="138" width="141" height="26" as="geometry" />
        </mxCell>
        <mxCell id="ylc-xCv-kNQs_xHYFbVs-227" value="+ update()" style="text;align=left;verticalAlign=top;spacingLeft=4;spacingRight=4;overflow=hidden;rotatable=0;points=[[0,0.5],[1,0.5]];portConstraint=eastwest;" parent="ylc-xCv-kNQs_xHYFbVs-217" vertex="1">
          <mxGeometry y="164" width="141" height="26" as="geometry" />
        </mxCell>
        <mxCell id="ylc-xCv-kNQs_xHYFbVs-228" value="+ delete()" style="text;align=left;verticalAlign=top;spacingLeft=4;spacingRight=4;overflow=hidden;rotatable=0;points=[[0,0.5],[1,0.5]];portConstraint=eastwest;" parent="ylc-xCv-kNQs_xHYFbVs-217" vertex="1">
          <mxGeometry y="190" width="141" height="26" as="geometry" />
        </mxCell>
        <mxCell id="6y3Bn1Rcq514JY3irPdN-42" value="1" style="text;align=left;verticalAlign=top;spacingLeft=4;spacingRight=4;overflow=hidden;rotatable=0;points=[[0,0.5],[1,0.5]];portConstraint=eastwest;rounded=0;shadow=0;html=0;" vertex="1" parent="WIyWlLk6GJQsqaUBKTNV-1">
          <mxGeometry x="-2929" y="-412" width="30" height="26" as="geometry" />
        </mxCell>
        <mxCell id="6y3Bn1Rcq514JY3irPdN-50" value="" style="endArrow=diamondThin;endFill=1;endSize=24;html=1;rounded=0;exitX=-0.003;exitY=0.057;exitDx=0;exitDy=0;exitPerimeter=0;entryX=-0.02;entryY=0.152;entryDx=0;entryDy=0;entryPerimeter=0;" edge="1" parent="WIyWlLk6GJQsqaUBKTNV-1" source="ylc-xCv-kNQs_xHYFbVs-217" target="ylc-xCv-kNQs_xHYFbVs-292">
          <mxGeometry width="160" relative="1" as="geometry">
            <mxPoint x="-3210" y="-1090" as="sourcePoint" />
            <mxPoint x="-3210" y="-820" as="targetPoint" />
            <Array as="points">
              <mxPoint x="-3270" y="-1090" />
              <mxPoint x="-3270" y="-820" />
            </Array>
          </mxGeometry>
        </mxCell>
        <mxCell id="6y3Bn1Rcq514JY3irPdN-52" value="0..*" style="text;align=left;verticalAlign=top;spacingLeft=4;spacingRight=4;overflow=hidden;rotatable=0;points=[[0,0.5],[1,0.5]];portConstraint=eastwest;rounded=0;shadow=0;html=0;" vertex="1" parent="WIyWlLk6GJQsqaUBKTNV-1">
          <mxGeometry x="-3250" y="-1110" width="30" height="26" as="geometry" />
        </mxCell>
        <mxCell id="6y3Bn1Rcq514JY3irPdN-57" value="1" style="text;align=left;verticalAlign=top;spacingLeft=4;spacingRight=4;overflow=hidden;rotatable=0;points=[[0,0.5],[1,0.5]];portConstraint=eastwest;rounded=0;shadow=0;html=0;" vertex="1" parent="WIyWlLk6GJQsqaUBKTNV-1">
          <mxGeometry x="-3245" y="-820" width="20" height="26" as="geometry" />
        </mxCell>
        <mxCell id="6y3Bn1Rcq514JY3irPdN-59" value="" style="endArrow=none;html=1;rounded=0;entryX=0.439;entryY=0;entryDx=0;entryDy=0;exitX=0.867;exitY=-0.001;exitDx=0;exitDy=0;entryPerimeter=0;exitPerimeter=0;" edge="1" parent="WIyWlLk6GJQsqaUBKTNV-1" source="ylc-xCv-kNQs_xHYFbVs-104" target="ylc-xCv-kNQs_xHYFbVs-166">
          <mxGeometry width="50" height="50" relative="1" as="geometry">
            <mxPoint x="-2950" y="-770" as="sourcePoint" />
            <mxPoint x="-2900" y="-820" as="targetPoint" />
            <Array as="points">
              <mxPoint x="-2840" y="-880" />
              <mxPoint x="-2643" y="-880" />
            </Array>
          </mxGeometry>
        </mxCell>
        <mxCell id="6y3Bn1Rcq514JY3irPdN-61" value="" style="endArrow=none;html=1;rounded=0;entryX=0.997;entryY=0.038;entryDx=0;entryDy=0;entryPerimeter=0;exitX=0.123;exitY=-0.003;exitDx=0;exitDy=0;exitPerimeter=0;" edge="1" parent="WIyWlLk6GJQsqaUBKTNV-1" source="ylc-xCv-kNQs_xHYFbVs-104" target="ylc-xCv-kNQs_xHYFbVs-204">
          <mxGeometry width="50" height="50" relative="1" as="geometry">
            <mxPoint x="-2910" y="-870" as="sourcePoint" />
            <mxPoint x="-2860" y="-920" as="targetPoint" />
            <Array as="points">
              <mxPoint x="-2959" y="-837" />
            </Array>
          </mxGeometry>
        </mxCell>
        <mxCell id="6y3Bn1Rcq514JY3irPdN-62" value="" style="endArrow=none;html=1;rounded=0;exitX=0.5;exitY=0;exitDx=0;exitDy=0;entryX=0.003;entryY=0.079;entryDx=0;entryDy=0;entryPerimeter=0;" edge="1" parent="WIyWlLk6GJQsqaUBKTNV-1" source="ylc-xCv-kNQs_xHYFbVs-104" target="ylc-xCv-kNQs_xHYFbVs-158">
          <mxGeometry width="50" height="50" relative="1" as="geometry">
            <mxPoint x="-2930" y="-880" as="sourcePoint" />
            <mxPoint x="-2880" y="-930" as="targetPoint" />
            <Array as="points">
              <mxPoint x="-2899" y="-1095" />
            </Array>
          </mxGeometry>
        </mxCell>
        <mxCell id="6y3Bn1Rcq514JY3irPdN-63" value="" style="endArrow=none;html=1;rounded=0;exitX=0.867;exitY=-0.001;exitDx=0;exitDy=0;exitPerimeter=0;" edge="1" parent="WIyWlLk6GJQsqaUBKTNV-1">
          <mxGeometry width="50" height="50" relative="1" as="geometry">
            <mxPoint x="-3160" y="-332" as="sourcePoint" />
            <mxPoint x="-2980" y="-380" as="targetPoint" />
            <Array as="points">
              <mxPoint x="-3160" y="-380" />
            </Array>
          </mxGeometry>
        </mxCell>
        <mxCell id="6y3Bn1Rcq514JY3irPdN-64" value="" style="endArrow=none;html=1;rounded=0;entryX=1;entryY=0.125;entryDx=0;entryDy=0;entryPerimeter=0;exitX=0.123;exitY=-0.003;exitDx=0;exitDy=0;exitPerimeter=0;" edge="1" parent="WIyWlLk6GJQsqaUBKTNV-1" target="6y3Bn1Rcq514JY3irPdN-4">
          <mxGeometry width="50" height="50" relative="1" as="geometry">
            <mxPoint x="-2645" y="-381" as="sourcePoint" />
            <mxPoint x="-2760" y="-404" as="targetPoint" />
            <Array as="points">
              <mxPoint x="-2645" y="-416" />
            </Array>
          </mxGeometry>
        </mxCell>
        <mxCell id="6y3Bn1Rcq514JY3irPdN-66" value="0..*" style="text;align=left;verticalAlign=top;spacingLeft=4;spacingRight=4;overflow=hidden;rotatable=0;points=[[0,0.5],[1,0.5]];portConstraint=eastwest;rounded=0;shadow=0;html=0;" vertex="1" parent="WIyWlLk6GJQsqaUBKTNV-1">
          <mxGeometry x="-2740" y="-1120" width="30" height="26" as="geometry" />
        </mxCell>
        <mxCell id="6y3Bn1Rcq514JY3irPdN-67" value="1" style="text;align=left;verticalAlign=top;spacingLeft=4;spacingRight=4;overflow=hidden;rotatable=0;points=[[0,0.5],[1,0.5]];portConstraint=eastwest;rounded=0;shadow=0;html=0;" vertex="1" parent="WIyWlLk6GJQsqaUBKTNV-1">
          <mxGeometry x="-2919" y="-838" width="20" height="26" as="geometry" />
        </mxCell>
        <mxCell id="6y3Bn1Rcq514JY3irPdN-68" value="0..*" style="text;align=left;verticalAlign=top;spacingLeft=4;spacingRight=4;overflow=hidden;rotatable=0;points=[[0,0.5],[1,0.5]];portConstraint=eastwest;rounded=0;shadow=0;html=0;" vertex="1" parent="WIyWlLk6GJQsqaUBKTNV-1">
          <mxGeometry x="-2640" y="-838" width="30" height="26" as="geometry" />
        </mxCell>
        <mxCell id="6y3Bn1Rcq514JY3irPdN-69" value="1" style="text;align=left;verticalAlign=top;spacingLeft=4;spacingRight=4;overflow=hidden;rotatable=0;points=[[0,0.5],[1,0.5]];portConstraint=eastwest;rounded=0;shadow=0;html=0;" vertex="1" parent="WIyWlLk6GJQsqaUBKTNV-1">
          <mxGeometry x="-2860" y="-838" width="20" height="26" as="geometry" />
        </mxCell>
        <mxCell id="6y3Bn1Rcq514JY3irPdN-70" value="1" style="text;align=left;verticalAlign=top;spacingLeft=4;spacingRight=4;overflow=hidden;rotatable=0;points=[[0,0.5],[1,0.5]];portConstraint=eastwest;rounded=0;shadow=0;html=0;" vertex="1" parent="WIyWlLk6GJQsqaUBKTNV-1">
          <mxGeometry x="-2960" y="-838" width="20" height="26" as="geometry" />
        </mxCell>
        <mxCell id="6y3Bn1Rcq514JY3irPdN-71" value="0..*" style="text;align=left;verticalAlign=top;spacingLeft=4;spacingRight=4;overflow=hidden;rotatable=0;points=[[0,0.5],[1,0.5]];portConstraint=eastwest;rounded=0;shadow=0;html=0;" vertex="1" parent="WIyWlLk6GJQsqaUBKTNV-1">
          <mxGeometry x="-3074" y="-864" width="30" height="26" as="geometry" />
        </mxCell>
        <mxCell id="6y3Bn1Rcq514JY3irPdN-72" value="1" style="text;align=left;verticalAlign=top;spacingLeft=4;spacingRight=4;overflow=hidden;rotatable=0;points=[[0,0.5],[1,0.5]];portConstraint=eastwest;rounded=0;shadow=0;html=0;" vertex="1" parent="WIyWlLk6GJQsqaUBKTNV-1">
          <mxGeometry x="-2819" y="-440" width="30" height="26" as="geometry" />
        </mxCell>
        <mxCell id="6y3Bn1Rcq514JY3irPdN-73" value="0..*" style="text;align=left;verticalAlign=top;spacingLeft=4;spacingRight=4;overflow=hidden;rotatable=0;points=[[0,0.5],[1,0.5]];portConstraint=eastwest;rounded=0;shadow=0;html=0;" vertex="1" parent="WIyWlLk6GJQsqaUBKTNV-1">
          <mxGeometry x="-2640" y="-407" width="30" height="26" as="geometry" />
        </mxCell>
        <mxCell id="6y3Bn1Rcq514JY3irPdN-74" value="0..*" style="text;align=left;verticalAlign=top;spacingLeft=4;spacingRight=4;overflow=hidden;rotatable=0;points=[[0,0.5],[1,0.5]];portConstraint=eastwest;rounded=0;shadow=0;html=0;" vertex="1" parent="WIyWlLk6GJQsqaUBKTNV-1">
          <mxGeometry x="-3190" y="-358" width="30" height="26" as="geometry" />
        </mxCell>
        <mxCell id="6y3Bn1Rcq514JY3irPdN-75" value="1" style="text;align=left;verticalAlign=top;spacingLeft=4;spacingRight=4;overflow=hidden;rotatable=0;points=[[0,0.5],[1,0.5]];portConstraint=eastwest;rounded=0;shadow=0;html=0;" vertex="1" parent="WIyWlLk6GJQsqaUBKTNV-1">
          <mxGeometry x="-3000" y="-407" width="20" height="26" as="geometry" />
        </mxCell>
      </root>
    </mxGraphModel>
  </diagram>
</mxfile>
